<?xml version="1.0" standalone="no"?><!DOCTYPE svg PUBLIC "-//W3C//DTD SVG 1.1//EN" "http://www.w3.org/Graphics/SVG/1.1/DTD/svg11.dtd"><svg t="1717402584447" class="icon" viewBox="0 0 1024 1024" version="1.1" xmlns="http://www.w3.org/2000/svg" p-id="7046" xmlns:xlink="http://www.w3.org/1999/xlink" width="64" height="64"><path d="M561.856 191.36A376.32 376.32 0 0 0 539.52 256h-82.56c-5.44-22.08-13.12-44.352-22.88-65.824l-113.088-29.44-110.912 29.216a349.44 349.44 0 0 0-31.52 143.488v248.64c0 14.4-11.52 25.92-25.92 25.92H84.16c-13.12 0-22.72 12.8-19.2 25.6 3.712 13.12 8 26.048 12.864 38.688l420.896 155.072 420.608-155.104c4.832-12.64 9.12-25.504 12.832-38.656 3.52-12.8-6.08-25.6-19.52-25.6h-68.48c-14.4 0-25.92-11.52-25.92-25.92v-248.64c0-48.224-10.816-97.152-30.784-141.696l-114.144-31.008-111.456 30.656z" fill="#FF822D" p-id="7047"></path><path d="M326.08 127.36a276.48 276.48 0 0 1 84.48 140.8 320 320 0 0 0-184.32 139.52V332.8c0-79.04 33.92-153.28 91.84-205.44 2.24-1.92 5.76-1.92 8 0zM770.24 333.44v73.92a319.52 319.52 0 0 0-184.64-139.2 275.008 275.008 0 0 1 84.16-140.48c2.24-1.92 5.76-1.92 8 0a274.336 274.336 0 0 1 92.48 205.76z" fill="#FF6723" p-id="7048"></path><path d="M919.36 671.68h-206.72c-56 0-110.72 17.6-156.16 50.24l-57.92 41.28-57.92-41.28a267.904 267.904 0 0 0-156.16-50.24H77.44C141.76 840.32 304.96 960 496 960h4.48c191.36-0.32 354.56-120 418.88-288.32z" fill="#FFDEA7" p-id="7049"></path><path d="M434.56 190.4c-20.8-45.76-51.2-88-89.28-118.72-6.4-5.12-14.4-7.68-22.4-7.68-8 0-16 2.56-22.4 7.68-38.72 31.04-69.76 72.32-90.56 118.72h224.64zM696.32 71.68c-6.4-5.12-14.4-7.68-22.4-7.68-8 0-16 2.56-22.4 7.68-38.4 31.04-69.12 73.92-89.92 120.32h226.24c-21.12-47.04-52.16-88.96-91.52-120.32zM352 576a32 32 0 1 1 64 0v32a32 32 0 1 1-64 0v-32zM576 576a32 32 0 1 1 64 0v32a32 32 0 1 1-64 0v-32zM498.56 820.16c17.28 26.24 47.36 43.84 81.28 43.84 8.64 0 15.68-7.04 15.68-16s-7.04-16-16-16c-35.84 0-65.28-29.12-65.28-65.28a16.224 16.224 0 0 0-1.664-7.232 28.096 28.096 0 0 0 5.504-4.288l36.16-36.16a27.68 27.68 0 0 0-19.52-47.36h-72.32c-24.96 0-37.44 29.76-19.84 47.36l36.16 36.16c1.6 1.6 3.392 3.008 5.28 4.16a16.192 16.192 0 0 0-1.76 7.36c0 35.84-29.12 65.28-65.28 65.28-8.96 0-16 7.04-16 16s7.04 16 16 16c33.92 0 64-17.6 81.6-43.84z" fill="#212121" p-id="7050"></path></svg>